<svg xmlns="http://www.w3.org/2000/svg" width="23" height="23" viewBox="0 0 23 23">
    <g fill="none" fill-rule="evenodd">
        <g>
            <g>
                <g transform="translate(-748.000000, -2639.000000) translate(748.000000, 2639.000000)">
                    <path fill="#0072ff" fill-rule="nonzero" d="M20.125 0C21.71 0 23 1.289 23 2.875v17.25C23 21.71 21.71 23 20.125 23H2.875C1.289 23 0 21.71 0 20.125V2.875C0 1.289 1.289 0 2.875 0zm-1.14 4.381h-2.922c-2.42 0-4.38 1.923-4.38 4.297v2.864H8.762v3.58h2.92V23h4.381v-7.877h2.191l1.46-3.58h-3.65V8.677c0-.747.583-.722 1.327-.717h1.593v-3.58z"/>
                </g>
            </g>
        </g>
    </g>
</svg>
