<svg display="none" xmlns="http://www.w3.org/2000/svg">

	<symbol id="check-green" viewBox="0 0 24 24">
		<g fill="#67DD2D">
			<g>
				<path d="M12 2C6.48 2 2 6.48 2 12s4.48 10 10 10 10-4.48 10-10S17.52 2 12 2zM9.29 16.29L5.7 12.7c-.39-.39-.39-1.02 0-1.41.39-.39 1.02-.39 1.41 0L10 14.17l6.88-6.88c.39-.39 1.02-.39 1.41 0 .39.39.39 1.02 0 1.41l-7.59 7.59c-.38.39-1.02.39-1.41 0z" transform="translate(-520.000000, -2638.000000) translate(520.000000, 2638.000000)"/>
			</g>
		</g>
	</symbol>

	<symbol id="attention-orange" viewBox="0 0 24 24">
		<g fill="#FF9F00">
			<g>
				<path d="M12 2C6.48 2 2 6.48 2 12s4.48 10 10 10 10-4.48 10-10S17.52 2 12 2zm0 11c-.55 0-1-.45-1-1V8c0-.55.45-1 1-1s1 .45 1 1v4c0 .55-.45 1-1 1zm1 4h-2v-2h2v2z" transform="translate(-577.000000, -2638.000000) translate(577.000000, 2638.000000)"/>
			</g>
		</g>
	</symbol>

	<symbol id="cross-red" viewBox="0 0 24 24">
		<g fill="#FF3921">
			<g>
				<path d="M12 2C6.47 2 2 6.47 2 12s4.47 10 10 10 10-4.47 10-10S17.53 2 12 2zm4.3 14.3c-.39.39-1.02.39-1.41 0L12 13.41 9.11 16.3c-.39.39-1.02.39-1.41 0-.39-.39-.39-1.02 0-1.41L10.59 12 7.7 9.11c-.39-.39-.39-1.02 0-1.41.39-.39 1.02-.39 1.41 0L12 10.59l2.89-2.89c.39-.39 1.02-.39 1.41 0 .39.39.39 1.02 0 1.41L13.41 12l2.89 2.89c.38.38.38 1.02 0 1.41z" transform="translate(-634.000000, -2638.000000) translate(634.000000, 2638.000000)"/>
			</g>
		</g>
	</symbol>

	<symbol id="check" viewBox="0 0 24 24">
		<g fill="currentColor">
			<g>
				<path d="M12 2C6.48 2 2 6.48 2 12s4.48 10 10 10 10-4.48 10-10S17.52 2 12 2zM9.29 16.29L5.7 12.7c-.39-.39-.39-1.02 0-1.41.39-.39 1.02-.39 1.41 0L10 14.17l6.88-6.88c.39-.39 1.02-.39 1.41 0 .39.39.39 1.02 0 1.41l-7.59 7.59c-.38.39-1.02.39-1.41 0z" transform="translate(-520.000000, -2638.000000) translate(520.000000, 2638.000000)"/>
			</g>
		</g>
	</symbol>

	<symbol id="attention" viewBox="0 0 24 24">
		<g fill="currentColor">
			<g>
				<path d="M12 2C6.48 2 2 6.48 2 12s4.48 10 10 10 10-4.48 10-10S17.52 2 12 2zm0 11c-.55 0-1-.45-1-1V8c0-.55.45-1 1-1s1 .45 1 1v4c0 .55-.45 1-1 1zm1 4h-2v-2h2v2z" transform="translate(-577.000000, -2638.000000) translate(577.000000, 2638.000000)"/>
			</g>
		</g>
	</symbol>

	<symbol id="cross" viewBox="0 0 24 24">
		<g fill="currentColor">
			<g>
				<path d="M12 2C6.47 2 2 6.47 2 12s4.47 10 10 10 10-4.47 10-10S17.53 2 12 2zm4.3 14.3c-.39.39-1.02.39-1.41 0L12 13.41 9.11 16.3c-.39.39-1.02.39-1.41 0-.39-.39-.39-1.02 0-1.41L10.59 12 7.7 9.11c-.39-.39-.39-1.02 0-1.41.39-.39 1.02-.39 1.41 0L12 10.59l2.89-2.89c.39-.39 1.02-.39 1.41 0 .39.39.39 1.02 0 1.41L13.41 12l2.89 2.89c.38.38.38 1.02 0 1.41z" transform="translate(-634.000000, -2638.000000) translate(634.000000, 2638.000000)"/>
			</g>
		</g>
	</symbol>

	<symbol id="calendar" viewBox="0 0 32 32"  fill="currentColor">
		<path d="M21.344 13.344h-10.688c-0.736 0-1.312 0.576-1.312 1.312s0.576 1.344 1.312 1.344h10.688c0.736 0 1.312-0.608 1.312-1.344s-0.576-1.312-1.312-1.312zM25.344 4h-1.344v-1.344c0-0.736-0.608-1.312-1.344-1.312s-1.312 0.576-1.312 1.312v1.344h-10.688v-1.344c0-0.736-0.576-1.312-1.312-1.312s-1.344 0.576-1.344 1.312v1.344h-1.344c-1.472 0-2.656 1.184-2.656 2.656v18.688c0 1.44 1.184 2.656 2.656 2.656h18.688c1.472 0 2.656-1.216 2.656-2.656v-18.688c0-1.472-1.184-2.656-2.656-2.656zM24 25.344h-16c-0.736 0-1.344-0.608-1.344-1.344v-13.344h18.688v13.344c0 0.736-0.608 1.344-1.344 1.344zM17.344 18.656h-6.688c-0.736 0-1.312 0.608-1.312 1.344s0.576 1.344 1.312 1.344h6.688c0.736 0 1.312-0.608 1.312-1.344s-0.576-1.344-1.312-1.344z"></path>
	</symbol>

	<symbol id="bookmark-border" viewBox="0 0 32 32" fill="currentColor">
		<path d="M22.656 4h-13.312c-1.472 0-2.688 1.184-2.688 2.656v21.344l9.344-4 9.344 4v-21.344c0-1.472-1.216-2.656-2.688-2.656zM22.656 24l-6.656-2.912-6.656 2.912v-16c0-0.736 0.576-1.344 1.312-1.344h10.688c0.736 0 1.312 0.608 1.312 1.344v16z"></path>
	</symbol>

	<symbol id="bookmark" viewBox="0 0 32 32" fill="currentColor">
		<path d="M22.656 4h-13.312c-1.472 0-2.688 1.184-2.688 2.656v21.344l9.344-4 9.344 4v-21.344c0-1.472-1.216-2.656-2.688-2.656z"></path>
	</symbol>

	<symbol id="search" viewBox="0 0 32 32" fill="currentColor">
		<path d="M20.672 18.656h-1.056l-0.384-0.352c1.6-1.856 2.432-4.416 1.984-7.104-0.64-3.712-3.712-6.688-7.456-7.136-5.632-0.704-10.4 4.064-9.696 9.696 0.448 3.744 3.424 6.816 7.136 7.456 2.688 0.448 5.248-0.384 7.104-1.984l0.352 0.384v1.056l5.664 5.664c0.576 0.544 1.44 0.544 2.016 0 0.544-0.544 0.544-1.44 0-1.984l-5.664-5.696zM12.672 18.656c-3.328 0-6.016-2.656-6.016-5.984s2.688-6.016 6.016-6.016c3.328 0 5.984 2.688 5.984 6.016s-2.656 5.984-5.984 5.984z"></path>
	</symbol>

	<symbol id="chevron-down" viewBox="0 0 32 32" fill="currentColor">
		<path d="M21.184 12.384l-5.184 5.184-5.184-5.184c-0.512-0.512-1.344-0.512-1.856 0-0.544 0.512-0.544 1.376 0 1.888l6.112 6.112c0.512 0.512 1.344 0.512 1.888 0l6.112-6.112c0.512-0.512 0.512-1.376 0-1.888s-1.376-0.512-1.888 0v0z"></path>
	</symbol>

	<symbol id="chevron-up" viewBox="0 0 32 32" fill="currentColor">
		<path d="M15.040 11.616l-6.112 6.112c-0.512 0.512-0.512 1.376 0 1.888s1.376 0.512 1.888 0l5.184-5.184 5.184 5.184c0.512 0.512 1.344 0.512 1.856 0 0.544-0.512 0.544-1.376 0-1.888l-6.112-6.112c-0.512-0.512-1.344-0.512-1.888 0z"></path>
	</symbol>

	<symbol id="watch" viewBox="0 0 32 32" fill="currentColor">
		<path d="M16 2.656c-7.328 0-13.344 6.016-13.344 13.344s6.016 13.344 13.344 13.344c7.328 0 13.344-6.016 13.344-13.344s-6.016-13.344-13.344-13.344zM20.736 21.056l-5.44-3.328c-0.416-0.256-0.64-0.672-0.64-1.152v-6.24c0-0.544 0.48-0.992 1.024-0.992s0.992 0.448 0.992 0.992v5.92l5.12 3.104c0.48 0.288 0.64 0.896 0.352 1.376s-0.928 0.608-1.408 0.32z"></path>
	</symbol>

	<symbol id="checkmark" viewBox="0 0 32 32" fill="currentColor">
		<path d="M12 21.568l-4.64-4.64c-0.512-0.512-1.344-0.512-1.856 0-0.544 0.512-0.544 1.376 0 1.888l5.568 5.568c0.512 0.512 1.344 0.512 1.888 0l14.080-14.112c0.544-0.512 0.544-1.344 0-1.888-0.512-0.512-1.344-0.512-1.856 0l-13.184 13.184z"></path>
	</symbol>

	<symbol id="child" viewBox="0 0 32 32" fill="currentColor">
		<path d="M18.56 12.128c0.96 0 1.92 0.352 2.592 0.992v0l3.648 3.456c0.704 0.608 0.704 1.696 0.032 2.336-0.704 0.672-1.824 0.64-2.496 0v0l-2.24-2.112v9.536c0 0.928-0.832 1.664-1.792 1.664-0.992 0-1.76-0.736-1.76-1.664v0-3.584c0-0.288-0.256-0.512-0.544-0.512s-0.544 0.224-0.544 0.512v0 3.584c0 0.928-0.8 1.664-1.76 1.664-0.992 0-1.76-0.736-1.76-1.664v0-9.568l-2.272 2.112c-0.704 0.672-1.824 0.704-2.496 0-0.672-0.608-0.672-1.696 0-2.304v0l3.744-3.456c0.672-0.64 1.6-0.992 2.56-0.992v0zM16 4c2.24 0 4.096 1.696 4.096 3.808s-1.856 3.808-4.096 3.808c-2.24 0-4.064-1.696-4.064-3.808s1.824-3.808 4.064-3.808z"></path>
	</symbol>

	<symbol id="comments" viewBox="0 0 32 32" fill="currentColor">
		<path d="M26.656 8h-1.312v10.656c0 0.736-0.608 1.344-1.344 1.344h-16v1.344c0 1.44 1.216 2.656 2.656 2.656h13.344l5.344 5.344v-18.688c0-1.472-1.216-2.656-2.688-2.656zM22.656 14.656v-9.312c0-1.472-1.184-2.688-2.656-2.688h-14.656c-1.472 0-2.688 1.216-2.688 2.688v17.312l5.344-5.312h12c1.472 0 2.656-1.216 2.656-2.688z"></path>
	</symbol>

	<symbol id="edit" viewBox="0 0 32 32" fill="currentColor">
		<path d="M4 23.264v4.064c0 0.384 0.288 0.672 0.672 0.672h4.064c0.16 0 0.32-0.064 0.448-0.192l14.56-14.56-4.992-4.992-14.56 14.528c-0.128 0.16-0.192 0.32-0.192 0.48zM27.616 9.376c0.512-0.512 0.512-1.344 0-1.856l-3.136-3.136c-0.512-0.512-1.344-0.512-1.856 0l-2.464 2.432 5.024 5.024 2.432-2.464z"></path>
	</symbol>

	<symbol id="pin" viewBox="0 0 32 32" fill="currentColor">
		<path d="M16 2.656c-5.152 0-9.344 4.192-9.344 9.344 0 5.568 5.92 13.216 8.32 16.16 0.544 0.64 1.504 0.64 2.048 0 2.432-2.944 8.32-10.592 8.32-16.16 0-5.152-4.192-9.344-9.344-9.344zM16 15.328c-1.824 0-3.328-1.504-3.328-3.328 0-1.856 1.504-3.328 3.328-3.328 1.856 0 3.328 1.472 3.328 3.328 0 1.824-1.472 3.328-3.328 3.328z"></path>
	</symbol>

	<symbol id="email" viewBox="0 0 32 32" fill="currentColor">
		<path d="M26.656 5.344h-21.312c-1.472 0-2.688 1.184-2.688 2.656v16c0 1.472 1.216 2.656 2.688 2.656h21.312c1.472 0 2.688-1.184 2.688-2.656v-16c0-1.472-1.216-2.656-2.688-2.656zM26.144 11.008l-8.736 5.44c-0.864 0.544-1.952 0.544-2.816 0l-8.736-5.44c-0.32-0.224-0.512-0.576-0.512-0.96 0-0.896 0.96-1.44 1.728-0.96l8.928 5.568 8.928-5.568c0.768-0.48 1.728 0.064 1.728 0.96 0 0.384-0.192 0.736-0.512 0.96z"></path>
	</symbol>

	<symbol id="phone" viewBox="0 0 32 32" fill="currentColor">
		<path d="M25.632 20.352l-3.392-0.384c-0.8-0.096-1.6 0.192-2.176 0.736l-2.464 2.464c-3.744-1.92-6.848-4.992-8.768-8.768l2.464-2.496c0.576-0.544 0.864-1.344 0.768-2.176l-0.384-3.36c-0.16-1.344-1.312-2.368-2.656-2.368h-2.304c-1.504 0-2.784 1.28-2.688 2.784 0.704 11.36 9.824 20.48 21.184 21.184 1.504 0.096 2.784-1.184 2.784-2.688v-2.304c0-1.344-1.024-2.464-2.368-2.624z"></path>
	</symbol>

	<symbol id="person" viewBox="0 0 32 32" fill="currentColor">
		<path d="M16 16c2.944 0 5.344-2.4 5.344-5.344s-2.4-5.312-5.344-5.312c-2.944 0-5.344 2.368-5.344 5.312s2.4 5.344 5.344 5.344zM16 18.656c-3.552 0-10.656 1.792-10.656 5.344v1.344c0 0.736 0.576 1.312 1.312 1.312h18.688c0.736 0 1.312-0.576 1.312-1.312v-1.344c0-3.552-7.104-5.344-10.656-5.344z"></path>
	</symbol>
	
	<symbol id="people" viewBox="0 0 32 32" fill="currentColor">
		<path d="M21.344 14.656c2.208 0 3.968-1.792 3.968-4s-1.76-4-3.968-4c-2.208 0-4 1.792-4 4s1.792 4 4 4zM10.656 14.656c2.24 0 4-1.792 4-4s-1.76-4-4-4c-2.208 0-4 1.792-4 4s1.792 4 4 4zM10.656 17.344c-3.104 0-9.312 1.536-9.312 4.64v2.016c0 0.736 0.576 1.344 1.312 1.344h16c0.736 0 1.344-0.608 1.344-1.344v-2.016c0-3.104-6.24-4.64-9.344-4.64zM21.344 17.344c-0.384 0-0.832 0-1.312 0.064 0.032 0 0.064 0.032 0.064 0.032 1.504 1.12 2.56 2.592 2.56 4.544v2.016c0 0.48-0.096 0.928-0.224 1.344h6.912c0.736 0 1.312-0.608 1.312-1.344v-2.016c0-3.104-6.208-4.64-9.312-4.64z"></path>
	</symbol>

	<symbol id="eye" viewBox="0 0 32 32" fill="currentColor">
		<path d="M16 5.344c-6.656 0-12.352 4.128-14.656 9.984 2.304 5.856 8 10.016 14.656 10.016s12.352-4.16 14.656-10.016c-2.304-5.856-8-9.984-14.656-9.984zM16 21.984c-3.68 0-6.656-2.976-6.656-6.656s2.976-6.656 6.656-6.656c3.68 0 6.656 2.976 6.656 6.656s-2.976 6.656-6.656 6.656zM16 11.328c-2.208 0-4 1.792-4 4s1.792 4 4 4c2.208 0 4-1.792 4-4s-1.792-4-4-4z"></path>
	</symbol>

	<!-- <symbol id="" viewBox="0 0 32 32" fill="currentColor">
		
	</symbol> -->

	<!-- <symbol id="" viewBox="0 0 24 24">
		<g fill="currentColor">
			<g>
			
			</g>
		</g>
	</symbol> -->
</svg>